<svg width="43" height="26" viewBox="0 0 43 26" fill="none" xmlns="http://www.w3.org/2000/svg">
<path d="M18.4817 22.4368C16.6679 24.6746 14.1827 25.7935 11.0262 25.7935C7.86976 25.7935 5.38462 24.6746 3.57082 22.4368C1.75702 20.1754 0.850117 17.0072 0.850117 12.932C0.850117 8.85685 1.75702 5.70037 3.57082 3.46257C5.38462 1.20121 7.86976 0.0705251 11.0262 0.0705251C14.1827 0.0705251 16.6679 1.20121 18.4817 3.46257C20.2955 5.70037 21.2024 8.85685 21.2024 12.932C21.2024 17.0072 20.2955 20.1754 18.4817 22.4368ZM5.40817 12.932C5.40817 18.821 7.28086 21.7655 11.0262 21.7655C14.7716 21.7655 16.6443 18.821 16.6443 12.932C16.6443 7.04305 14.7716 4.09857 11.0262 4.09857C7.28086 4.09857 5.40817 7.04305 5.40817 12.932ZM34.5359 10.9887C36.9386 11.1771 38.7995 11.872 40.1186 13.0733C41.4377 14.2747 42.0973 15.9236 42.0973 18.0201C42.0973 20.3992 41.2611 22.2955 39.5886 23.7088C37.9397 25.0986 35.6783 25.7935 32.8045 25.7935C29.012 25.7935 26.0087 24.5568 23.7944 22.0835L26.3385 19.1154C28.1287 20.9057 30.2605 21.8008 32.7339 21.8008C34.3357 21.8008 35.5488 21.4474 36.3732 20.7408C37.2213 20.0341 37.6453 19.0683 37.6453 17.8434C37.6453 16.5478 37.1152 15.582 36.0552 14.946C34.9952 14.31 33.2403 13.992 30.7905 13.992H29.5185V11.1653L35.8432 4.48724H25.1371V0.565198H41.0726V4.13391L34.5359 10.9887Z" fill="#2F80ED"/>
</svg>
