<svg width="1057" height="443" viewBox="0 0 1057 443" fill="none" xmlns="http://www.w3.org/2000/svg">
<path d="M71.4743 342.672C63.3404 350.099 52.7706 365.495 26.0657 368.187C-0.0184256 370.817 61.8009 343.518 80.6695 355.564C102.726 369.644 -6.39162 410.306 7.57783 394.509C15.3932 385.671 88.4086 368.499 88.4086 382.423C88.4086 400.135 7.57771 427.498 2.55032 421.243C-6.31868 410.21 94.874 386.236 100.017 400.955C106.15 418.507 41.5811 439.305 29.5424 432.591C19.9114 427.219 91.1669 414.989 100.84 441.512" stroke="#07A9BE" stroke-width="2.05917" stroke-linecap="round"/>
<path d="M1049.43 20.4046C1049.77 20.7838 1049.82 21.3415 1049.55 21.7876C1049.3 22.2003 1049.09 22.5573 1048.85 22.8919C1046.3 26.4165 1044.91 28.2569 1042.4 31.8038C1041.76 32.6961 1040.22 35.4288 1039.63 36.3657C1039.62 36.3769 1039.62 36.388 1039.61 36.3992C1039.07 37.2023 1037.76 37.1465 1037.33 36.2653C1037.33 36.2653 1037.33 36.2542 1037.32 36.2542C1036.7 34.8823 1036.2 33.4657 1035.62 32.0715C1034.02 28.2234 1031.8 24.8884 1028.11 22.7023C1026.77 21.9103 1026.75 21.3303 1027.79 20.1815C1028.18 19.7576 1028.57 19.3226 1028.99 18.9434C1033.08 15.2961 1035.91 10.7899 1038.01 5.77072C1038.15 5.45841 1038.42 5.21302 1038.71 4.96764C1039.09 4.65533 1039.63 4.69995 1039.97 5.05687C1040.25 5.34687 1040.5 5.65918 1040.66 6.00495C1041 6.80802 1041.09 7.71149 1041.31 8.57033C1042.44 13.2438 1044.97 16.9692 1048.82 19.8357C1049.03 19.9919 1049.22 20.1926 1049.43 20.4046ZM1039.17 9.2061C1037.85 11.4146 1036.73 13.6899 1035.22 15.6753C1033.66 17.6942 1031.72 19.4119 1029.95 21.2746C1034.46 23.9738 1037.07 28.2457 1038.64 33.488C1040.95 28.7142 1044.14 24.9219 1047.64 21.3749C1042.11 17.1588 1040.79 15.2515 1039.17 9.2061Z" fill="black"/>
<path d="M1007.36 58.897C1006.35 56.0193 1005.47 53.0858 1004.35 50.2528C1003.26 47.5089 1001.63 45.0662 999.289 43.1812C998.43 42.4897 998.452 41.8651 999.155 41.0843C1003.1 36.7901 1006.14 31.927 1008.31 26.5174C1008.55 25.9374 1009.17 25.0116 1009.61 25.0116C1010.79 24.7328 1011.21 27.0416 1011.26 27.2535C1012.25 32.6966 1015.62 36.6562 1019.4 40.3593C1020.63 41.5639 1020.73 41.932 1019.52 43.092C1014.98 47.442 1011.97 52.7958 1009.38 58.4285C1008.57 60.3916 1007.49 59.2428 1007.36 58.897ZM1000.65 41.8539C1003.06 43.382 1004.65 45.4232 1005.81 47.732C1006.94 49.9962 1007.77 52.3943 1008.7 54.692C1010.87 49.8512 1013.79 45.3785 1018.23 41.9766C1013.93 38.597 1010.54 34.7378 1009.51 29.2055C1007.64 34.1801 1004.69 38.3182 1000.65 41.8539Z" fill="#81ADC8"/>
<path d="M1037.85 46.8957C1035.38 50.2084 1033.88 53.9895 1032.49 57.8376C1032.4 58.083 1032.11 59.4772 1031.05 59.4661C1030.75 59.4661 1030.25 58.9865 1030.06 58.6072C1029.23 56.9007 1028.7 54.9934 1027.64 53.4542C1026.39 51.6249 1024.67 50.1192 1023.22 48.4349C1023.01 48.1895 1022.93 47.6318 1023.07 47.3307C1023.32 46.773 1023.78 46.3268 1024.14 45.8138C1025.96 43.1368 1027.74 40.4376 1029.62 37.8053C1030.01 37.2588 1030.78 36.6007 1031.23 36.6007C1032.37 36.5895 1032.59 37.4818 1032.79 38.1176C1033.71 41.0399 1035.28 43.4826 1037.57 45.5015C1038.38 46.2599 1037.95 46.7618 1037.85 46.8957ZM1025.32 47.6653C1027.98 49.5503 1029.78 52.2718 1030.88 55.3168C1032.49 52.3499 1034.14 49.3272 1035.84 46.2042C1033.56 44.6315 1031.98 41.698 1031.26 39.5341C1029.27 42.2557 1027.31 44.9438 1025.32 47.6653Z" fill="#2F80ED"/>
</svg>
